<?xml version="1.0" standalone="no"?>
<!DOCTYPE svg PUBLIC "-//W3C//DTD SVG 20010904//EN"
 "http://www.w3.org/TR/2001/REC-SVG-20010904/DTD/svg10.dtd">
<svg version="1.0" xmlns="http://www.w3.org/2000/svg"
 width="600.000000pt" height="900.000000pt" viewBox="0 0 600.000000 900.000000"
 preserveAspectRatio="xMidYMid meet">
<g transform="translate(0.000000,900.000000) scale(0.100000,-0.100000)"
fill="#000000" stroke="none">
<path d="M1864 6338 c-27 -3 -69 -9 -94 -13 -25 -4 -50 -7 -57 -8 -7 0 -9 -5
-6 -10 3 -5 0 -7 -8 -5 -8 3 -33 -3 -56 -13 -22 -10 -44 -15 -46 -12 -3 3 -16
-2 -29 -11 -29 -21 -48 -21 -22 0 18 15 18 15 -3 5 -26 -13 -25 -51 3 -82 17
-19 17 -20 -2 -13 -10 4 -16 4 -12 0 3 -4 14 -9 25 -11 10 -1 17 -8 15 -15 -2
-7 3 -10 12 -7 19 8 52 -28 35 -39 -8 -5 -10 -3 -4 6 6 9 4 11 -4 6 -15 -10
-6 -21 17 -21 10 0 16 -7 16 -18 -2 -13 1 -15 10 -7 16 13 26 3 19 -18 -3 -12
-2 -13 4 -5 6 9 17 3 40 -22 17 -18 28 -37 25 -40 -4 -4 -2 -6 3 -5 22 5 29
-1 15 -11 -13 -9 -13 -10 0 -6 8 2 21 -3 29 -11 12 -12 12 -15 0 -24 -10 -7
-7 -7 10 -3 19 6 23 4 18 -8 -4 -12 -2 -14 10 -10 11 4 14 2 9 -5 -4 -7 8 -21
28 -34 20 -13 36 -27 36 -31 0 -5 -4 -5 -10 -2 -5 3 -10 4 -10 1 0 -3 10 -10
21 -17 17 -9 20 -8 14 3 -5 7 5 0 22 -15 17 -15 39 -29 50 -30 17 -1 19 -5 12
-29 -4 -15 -6 -28 -3 -28 3 0 -1 -10 -7 -22 -6 -12 -15 -47 -18 -79 -6 -48 -4
-58 11 -68 12 -8 18 -8 18 0 0 5 4 8 9 4 5 -3 13 4 16 16 7 20 7 20 28 2 22
-18 22 -18 4 3 -16 19 -16 23 -2 34 12 10 18 10 29 1 12 -10 14 -9 12 6 -4 27
22 62 43 58 12 -2 18 2 17 13 0 9 6 17 14 17 8 0 15 5 16 10 2 23 17 44 27 38
5 -3 7 -1 4 4 -6 10 15 25 38 27 6 1 11 7 11 14 1 6 2 17 3 22 0 6 15 19 32
29 17 10 30 22 29 25 -1 4 1 12 3 19 4 9 6 9 6 0 1 -7 5 -13 11 -13 5 0 7 6 4
13 -3 8 3 20 13 27 14 11 16 11 6 1 -9 -11 -8 -19 5 -39 16 -25 16 -26 -3 -19
-20 7 -20 7 0 -9 16 -12 16 -15 4 -12 -19 3 -75 -51 -71 -69 2 -8 -3 -10 -13
-7 -8 3 -12 11 -8 18 3 6 -6 0 -20 -13 -19 -17 -24 -28 -17 -36 11 -14 -12
-40 -24 -28 -4 4 -4 -1 -1 -12 7 -20 6 -20 -10 0 -17 20 -17 20 -11 -2 8 -24
-17 -44 -44 -36 -13 4 -13 3 0 -6 8 -5 11 -13 7 -17 -3 -4 -15 -1 -24 7 -16
13 -17 12 -5 -3 12 -15 9 -22 -22 -53 -19 -19 -33 -35 -30 -35 3 0 -2 -7 -10
-16 -9 -8 -20 -13 -26 -9 -5 3 -7 0 -4 -8 3 -8 -2 -20 -11 -27 -13 -11 -15
-10 -10 6 4 10 -2 4 -13 -15 -13 -24 -21 -30 -25 -20 -4 11 -6 10 -6 -2 -1
-24 -72 -101 -87 -95 -9 3 -11 0 -7 -11 5 -12 2 -15 -10 -10 -9 3 -18 2 -18
-3 -1 -6 -2 -16 -3 -22 -1 -7 -7 -12 -14 -11 -7 2 -12 -3 -12 -10 0 -16 -46
-58 -54 -50 -3 4 -6 -2 -6 -12 0 -14 -3 -16 -12 -7 -8 8 -8 15 2 27 22 26 5
16 -19 -12 -17 -18 -19 -24 -7 -20 21 8 21 -16 1 -33 -8 -7 -15 -9 -15 -4 0 5
-4 3 -9 -5 -9 -14 -31 -7 -31 10 0 6 5 7 12 3 7 -4 8 -3 4 5 -4 6 -12 9 -17 6
-16 -10 -10 7 7 19 14 10 13 12 -3 12 -15 0 -19 -8 -19 -41 0 -22 1 -34 4 -27
3 10 7 10 18 1 20 -17 17 -26 -11 -33 -14 -4 -25 -13 -25 -22 0 -8 -5 -12 -10
-9 -6 4 -9 2 -8 -3 2 -6 -1 -10 -7 -10 -5 -1 -9 6 -9 13 1 11 -3 12 -17 4 -22
-11 -24 -2 -5 23 7 10 17 14 21 10 5 -4 5 -2 1 5 -3 6 3 18 15 27 16 11 23 27
25 63 2 26 6 73 10 103 4 30 6 60 4 65 -1 6 -3 15 -3 22 0 7 -4 10 -8 8 -4 -3
-9 2 -13 10 -3 8 -2 14 2 12 4 -1 7 2 7 8 0 6 -4 9 -9 7 -5 -2 -23 7 -41 20
-29 19 -31 24 -18 34 13 9 13 13 3 19 -8 5 -11 4 -7 -2 4 -6 0 -13 -8 -17 -8
-3 -17 -1 -20 4 -4 6 0 10 7 10 7 0 -2 8 -19 16 -18 9 -30 21 -26 27 3 5 1 7
-5 3 -6 -3 -13 -2 -17 4 -3 5 0 10 7 10 10 0 9 3 -2 9 -8 6 -18 7 -22 5 -5 -3
-7 0 -6 8 2 7 -3 12 -10 10 -6 -1 -11 4 -10 10 2 7 -3 12 -10 10 -8 -1 -11 6
-8 22 4 23 -15 52 -26 41 -11 -11 -58 19 -59 37 -2 30 -4 36 -11 43 -3 4 -5
-5 -4 -19 2 -14 -1 -23 -5 -20 -5 3 -9 11 -9 17 0 7 -16 23 -35 36 -19 13 -32
28 -28 34 4 6 1 7 -7 2 -10 -6 -12 -4 -7 8 4 12 2 14 -10 10 -11 -5 -14 -3 -8
6 6 10 3 11 -14 2 -11 -6 -24 -23 -27 -38 -7 -25 -8 -25 -20 -8 -8 11 -14 14
-14 9 0 -6 5 -15 10 -20 10 -10 -16 -142 -29 -154 -4 -3 -7 -88 -8 -190 -1
-110 2 -177 7 -165 8 19 9 18 9 -4 1 -35 30 -139 52 -187 11 -23 17 -48 14
-57 -4 -8 -2 -18 4 -22 7 -4 9 1 5 12 -3 10 4 2 16 -17 13 -19 33 -48 46 -63
13 -16 24 -37 24 -47 0 -10 5 -22 12 -26 8 -5 9 -2 4 11 -6 17 -5 18 11 3 10
-8 24 -13 32 -10 10 3 12 0 7 -14 -4 -14 -1 -12 13 6 11 14 17 27 15 30 -3 2
-9 -2 -14 -10 -6 -8 -10 -10 -10 -4 0 6 7 17 15 24 8 7 15 9 15 5 0 -5 9 0 19
9 11 10 24 15 29 12 5 -3 16 2 23 12 12 15 12 16 -2 5 -9 -7 -19 -10 -22 -6
-9 9 -9 24 1 21 13 -5 53 30 56 48 2 11 11 21 21 23 13 2 16 -1 12 -14 -4 -9
-3 -14 3 -10 6 3 7 18 4 33 -4 21 -3 24 5 12 10 -13 11 -13 12 0 1 8 1 19 0
24 -1 5 4 4 12 -2 8 -7 16 -10 19 -7 3 3 11 -1 18 -10 17 -21 5 -31 -17 -14
-16 12 -17 12 -5 -2 10 -13 10 -18 -1 -28 -8 -6 -18 -7 -22 -3 -5 4 -5 1 -1
-5 4 -7 2 -13 -3 -13 -6 0 -11 -7 -11 -15 0 -8 -5 -15 -11 -15 -5 0 -7 4 -4
10 14 23 -24 -3 -44 -30 -18 -26 -19 -29 -4 -24 16 5 15 3 -1 -10 -11 -9 -23
-16 -26 -16 -4 0 -12 -10 -18 -22 -7 -13 -11 -16 -9 -8 1 8 -2 17 -7 20 -5 3
-10 -7 -10 -22 -1 -15 -8 -33 -15 -40 -9 -9 -12 -9 -7 -1 8 14 -10 28 -18 14
-4 -5 -2 -12 4 -16 15 -9 12 -27 -2 -20 -7 4 -5 0 6 -9 10 -8 15 -20 11 -26
-4 -6 -1 -9 7 -8 7 2 12 -3 10 -10 -1 -8 2 -11 8 -7 5 3 10 -1 10 -10 0 -9 5
-13 10 -10 6 3 10 1 10 -4 0 -6 14 -24 31 -41 l32 -30 181 0 c99 -1 197 -2
216 -4 70 -6 135 -19 146 -28 7 -5 16 -8 20 -7 22 4 45 -2 40 -10 -4 -5 4 -7
16 -4 19 4 20 3 8 -6 -9 -7 -10 -11 -3 -11 6 0 14 4 17 9 7 11 46 2 46 -9 0
-5 10 -10 23 -12 12 -2 21 -9 20 -15 -2 -8 4 -10 14 -6 9 4 14 2 10 -3 -3 -5
7 -9 21 -8 36 2 53 -6 45 -19 -3 -5 -1 -7 4 -4 6 4 26 -8 45 -26 19 -18 41
-31 49 -29 9 3 7 -4 -6 -19 -11 -13 -13 -18 -5 -11 18 15 34 16 24 0 -4 -7 -3
-8 5 -4 12 8 50 -30 51 -49 0 -5 -5 -3 -11 5 -8 12 -10 12 -7 1 2 -8 12 -15
21 -17 10 -1 14 2 11 8 -5 7 -2 8 5 4 7 -5 10 -15 7 -23 -4 -9 -1 -13 6 -11
14 5 48 -33 48 -52 0 -6 5 -8 10 -5 6 3 10 -1 10 -10 0 -9 4 -14 9 -11 12 8
54 -40 47 -53 -5 -7 -1 -8 10 -4 13 5 16 3 11 -10 -3 -9 -3 -16 1 -14 16 5 59
-39 57 -60 -1 -13 3 -19 11 -16 14 5 86 -61 77 -71 -4 -3 0 -6 8 -6 16 0 49
-34 49 -51 0 -5 4 -7 10 -4 5 3 10 2 10 -4 0 -14 67 -81 74 -74 3 4 6 0 6 -7
0 -7 12 -25 28 -39 15 -15 26 -36 26 -48 -1 -13 2 -20 7 -17 4 2 5 12 2 21 -5
11 -3 14 6 9 7 -5 10 -17 7 -29 -3 -14 -2 -17 6 -9 8 8 17 4 32 -16 12 -15 20
-30 18 -34 -1 -5 2 -8 6 -8 12 0 87 -71 85 -80 -1 -4 9 -13 23 -20 14 -8 23
-19 20 -26 -3 -8 1 -11 10 -7 10 4 12 0 8 -11 -4 -10 1 -18 12 -23 26 -10 44
-29 36 -38 -4 -5 -2 -5 4 -2 6 3 24 -7 40 -24 23 -24 25 -29 9 -23 -20 7 -20
7 0 -9 11 -8 23 -13 27 -11 11 7 10 -10 -2 -24 -7 -9 -7 -9 2 -2 19 16 32 12
18 -5 -10 -13 -11 -18 -1 -28 7 -7 12 -7 11 -2 -5 26 5 20 65 -40 59 -58 65
-67 55 -86 -7 -11 -9 -23 -6 -27 3 -3 6 -1 6 4 0 5 9 10 21 11 15 1 19 -3 15
-13 -3 -8 -2 -12 4 -9 12 8 51 -26 43 -38 -3 -6 -1 -7 5 -3 10 6 26 -10 27
-26 0 -3 4 -10 9 -15 5 -5 6 -2 2 7 -4 8 -1 6 8 -4 8 -10 13 -23 9 -29 -3 -6
-1 -7 5 -3 14 8 44 -22 35 -37 -4 -7 0 -8 11 -4 9 4 15 3 12 -2 -3 -5 1 -14 9
-21 7 -6 12 -17 9 -24 -3 -7 6 -21 18 -32 13 -11 18 -12 10 -3 -6 9 -8 20 -4
24 4 5 1 5 -5 1 -7 -4 -13 -2 -13 3 0 20 20 11 32 -14 6 -13 14 -22 18 -20 5
3 11 -2 14 -11 3 -8 11 -12 17 -8 8 5 8 1 1 -13 -9 -15 -8 -20 3 -20 8 0 11 5
8 10 -3 6 -1 7 5 3 7 -4 12 -13 12 -20 0 -7 11 -18 24 -26 16 -8 22 -18 19
-28 -5 -11 -3 -13 7 -7 10 6 12 2 7 -16 -6 -23 -6 -24 10 -4 15 20 15 20 10
-3 -3 -12 -1 -20 3 -17 5 3 21 -7 36 -22 21 -21 25 -30 16 -44 -10 -15 -8 -17
10 -14 23 5 101 -62 91 -78 -3 -6 -2 -7 4 -4 15 10 57 -39 47 -55 -6 -10 -4
-10 9 1 15 12 17 11 17 -3 0 -8 14 -23 30 -31 46 -24 71 -48 59 -56 -7 -4 -4
-9 6 -12 9 -4 13 -3 10 3 -9 14 9 12 23 -2 7 -7 12 -8 12 -3 0 6 4 4 9 -3 4
-8 28 -16 52 -19 32 -5 38 -8 24 -13 -11 -4 21 -6 70 -6 50 1 95 4 101 8 21
14 98 37 106 32 4 -3 8 0 8 6 0 6 4 9 9 5 5 -3 13 0 17 6 4 8 3 9 -4 5 -7 -4
-12 -3 -12 3 0 10 38 27 52 23 5 -1 7 1 5 6 -1 4 3 7 8 7 6 0 9 -9 7 -20 -2
-16 0 -17 8 -5 5 8 7 22 5 31 -3 9 4 27 15 42 11 14 20 31 20 39 0 10 3 9 11
-2 9 -13 10 -13 6 0 -2 8 2 28 10 43 16 31 18 41 33 135 6 35 9 66 6 70 -2 4
-7 23 -10 44 -7 47 -43 138 -63 160 -8 9 -12 22 -7 29 4 7 3 10 -3 6 -12 -8
-55 67 -45 78 4 5 1 5 -5 1 -15 -8 -76 51 -68 65 4 5 11 6 17 3 7 -4 8 -2 4 5
-5 8 -12 9 -20 2 -14 -12 -71 21 -59 34 5 4 3 5 -3 2 -14 -8 -37 17 -26 27 4
4 0 6 -8 4 -8 -2 -14 3 -13 10 2 6 -6 12 -16 12 -11 0 -23 5 -27 12 -4 6 -3 8
2 5 5 -3 10 3 10 14 0 12 -4 15 -10 9 -14 -14 -29 -12 -20 3 4 6 4 9 -1 5 -4
-4 -22 11 -40 32 -18 21 -36 36 -41 32 -5 -4 -2 1 5 11 11 14 16 15 22 5 5 -7
9 -8 9 -2 0 19 -13 24 -28 11 -12 -9 -16 -9 -19 1 -3 6 -9 9 -15 6 -12 -8 -91
73 -83 85 2 5 -3 8 -13 7 -9 0 -16 4 -15 11 2 6 -7 15 -18 18 -15 5 -17 10 -9
19 8 10 4 13 -15 11 -14 -2 -25 2 -25 8 0 7 -13 22 -30 35 -18 15 -27 29 -23
40 4 14 3 15 -6 2 -10 -14 -26 -8 -26 11 0 5 -4 9 -10 10 -18 1 -54 41 -49 54
3 7 1 16 -5 20 -7 3 -8 0 -5 -10 10 -25 -21 -8 -36 21 -12 21 -11 27 11 52
l24 27 -32 -29 c-30 -27 -53 -28 -53 -3 0 7 4 6 10 -3 7 -12 9 -10 7 7 -1 17
-4 19 -14 11 -15 -12 -48 16 -48 41 0 8 -7 16 -15 18 -13 4 -13 3 0 -6 9 -7
10 -11 3 -11 -20 0 -26 20 -11 38 12 15 11 16 -5 3 -16 -13 -21 -10 -52 22
-19 21 -39 37 -43 37 -5 0 -17 9 -28 21 -16 17 -16 22 -4 31 12 8 11 9 -3 4
-25 -8 -44 4 -26 15 10 6 10 9 2 9 -7 0 -10 7 -7 18 5 14 4 14 -4 2 -6 -8 -8
-19 -4 -25 3 -5 -17 14 -45 43 -28 28 -56 52 -63 52 -6 0 -8 5 -4 12 4 7 3 8
-4 4 -7 -4 -12 -1 -12 8 0 8 -9 18 -21 21 -15 5 -19 13 -16 27 4 16 3 17 -9 7
-13 -10 -18 -6 -15 14 0 4 -2 6 -6 5 -14 -4 -52 35 -46 46 3 6 3 8 -2 4 -8 -8
-90 60 -90 74 0 4 -6 13 -12 20 -7 6 -13 9 -13 4 0 -4 -11 5 -25 20 -13 14
-22 30 -19 35 3 5 -1 6 -9 3 -19 -7 -82 60 -82 88 0 17 -5 22 -20 21 -13 -2
-48 24 -100 74 -44 43 -72 71 -62 64 9 -8 20 -11 23 -8 3 3 -4 10 -15 17 -12
6 -21 8 -21 4 0 -4 -9 1 -20 11 -12 10 -19 24 -16 31 3 8 -1 11 -9 8 -15 -6
-39 29 -27 40 3 4 0 5 -8 2 -15 -6 -29 12 -71 93 -10 19 -16 38 -12 44 3 6 1
7 -4 4 -6 -4 -16 12 -23 38 -7 25 -16 42 -21 39 -5 -3 -6 3 -2 12 5 13 3 15
-7 9 -10 -6 -12 -4 -7 8 3 9 3 18 -2 21 -4 3 -6 18 -5 35 1 17 -4 35 -12 42
-8 6 -14 19 -14 28 0 9 -7 34 -14 56 -11 31 -11 43 -3 54 10 12 9 13 -2 6 -11
-6 -13 -4 -8 8 3 10 3 17 -1 17 -4 0 -8 17 -10 37 -1 20 -7 42 -13 50 -6 7 -7
13 -2 13 6 0 4 26 -4 63 -8 34 -19 82 -24 107 -10 47 -20 145 -23 220 -1 25
-5 51 -9 57 -4 7 -3 23 3 35 9 19 9 21 -2 7 -12 -14 -16 -12 -39 12 -15 15
-24 31 -20 35 3 4 1 4 -6 1 -6 -4 -19 1 -29 10 -13 13 -16 14 -12 3 8 -26 -32
-58 -79 -62 -17 -2 -24 -25 -7 -25 8 0 14 5 14 10 0 6 3 7 6 4 12 -12 -50 -67
-65 -58 -9 6 -10 11 -2 15 6 4 11 2 11 -4 0 -6 5 -8 11 -4 8 4 7 9 -2 15 -20
12 -42 -10 -28 -28 10 -11 6 -20 -16 -43 -31 -32 -51 -39 -41 -15 3 8 2 14 -2
12 -13 -4 -14 8 -1 35 6 15 16 25 21 22 5 -3 7 0 6 8 -2 7 3 12 10 10 6 -1 11
1 11 5 -3 19 2 33 12 33 13 0 39 25 39 39 0 5 5 13 12 17 7 5 9 2 4 -7 -4 -8
4 -1 18 16 14 16 23 31 21 34 -3 2 1 11 8 19 7 10 8 13 1 9 -14 -8 -37 16 -26
28 4 5 2 5 -5 2 -6 -4 -13 -2 -15 3 -2 6 -10 12 -18 13 -25 4 -41 18 -34 29 4
7 2 8 -4 4 -16 -10 -54 12 -46 26 5 7 0 9 -14 6 -12 -3 -23 -1 -25 5 -1 5 -12
11 -23 12 -10 1 -36 9 -56 18 -21 8 -58 19 -84 23 -33 5 -42 9 -33 16 11 8 10
9 -3 4 -9 -3 -45 0 -80 5 -80 13 -161 16 -224 7z m256 -32 c108 -20 231 -68
327 -128 46 -29 82 -56 81 -60 -2 -3 -84 -89 -183 -191 -99 -101 -220 -225
-269 -275 -49 -51 -90 -91 -92 -90 -1 2 8 50 21 108 13 58 24 110 25 116 0 7
-17 15 -37 19 -32 6 -69 38 -240 208 -111 110 -207 203 -213 207 -20 12 218
83 310 93 81 9 200 5 270 -7z m526 -291 c19 -20 34 -45 34 -58 1 -114 58 -468
106 -656 61 -238 134 -372 280 -511 44 -40 133 -126 199 -189 137 -131 272
-260 395 -376 322 -304 457 -432 545 -515 203 -194 228 -215 241 -214 8 1 11
-2 9 -7 -6 -9 -9 -7 149 -153 136 -127 197 -202 234 -289 22 -52 26 -77 26
-162 1 -108 -13 -161 -60 -223 -14 -17 -22 -37 -18 -44 4 -7 3 -8 -4 -4 -6 4
-31 -9 -56 -28 -70 -53 -127 -71 -231 -71 -83 0 -96 3 -160 34 -57 28 -95 60
-205 170 -75 75 -169 172 -211 216 -257 275 -558 595 -708 755 -97 102 -205
217 -241 255 -37 39 -107 113 -156 165 -50 52 -135 142 -188 200 -54 58 -130
133 -169 167 -176 153 -464 233 -792 219 -77 -4 -145 -3 -150 1 -6 5 -33 35
-62 68 l-51 60 524 530 c288 292 559 567 601 613 42 45 78 82 80 82 3 0 20
-16 39 -35z m-1006 -706 c-10 -90 -15 -108 -38 -132 -15 -16 -79 -83 -143
-150 l-117 -121 -45 71 c-138 215 -179 392 -146 630 9 68 45 227 55 244 2 3
103 -94 225 -217 l221 -222 -12 -103z m646 449 c5 -7 3 -8 -6 -3 -10 6 -12 4
-7 -8 4 -11 2 -14 -9 -10 -11 4 -12 9 -3 19 14 17 16 17 25 2z m-860 -73 c2
-11 -2 -12 -17 -2 -13 8 -15 13 -6 19 13 8 20 3 23 -17z m74 -648 c0 -2 -12
-14 -27 -28 l-28 -24 24 28 c23 25 31 32 31 24z m20 -68 c-7 -11 -14 -19 -16
-16 -7 7 7 37 17 37 6 0 5 -9 -1 -21z m-90 -3 c0 -2 -8 -10 -17 -17 -16 -13
-17 -12 -4 4 13 16 21 21 21 13z m1827 -311 c0 -8 -4 -12 -9 -9 -5 3 -6 10 -3
15 9 13 12 11 12 -6z"/>
<path d="M1734 6088 l-19 -23 23 19 c21 18 27 26 19 26 -2 0 -12 -10 -23 -22z"/>
<path d="M2415 6100 c-3 -6 1 -7 9 -4 18 7 21 14 7 14 -6 0 -13 -4 -16 -10z"/>
<path d="M1790 6037 c0 -3 12 -12 26 -22 15 -9 23 -12 20 -6 -7 11 -46 35 -46
28z"/>
<path d="M2320 5991 c0 -6 4 -13 10 -16 6 -3 7 1 4 9 -7 18 -14 21 -14 7z"/>
<path d="M1899 5943 c-13 -16 -12 -17 4 -4 16 13 21 21 13 21 -2 0 -10 -8 -17
-17z"/>
<path d="M2299 5663 c-13 -16 -12 -17 4 -4 9 7 17 15 17 17 0 8 -8 3 -21 -13z"/>
<path d="M2216 5582 c-3 -5 1 -9 9 -9 8 0 12 4 9 9 -3 4 -7 8 -9 8 -2 0 -6 -4
-9 -8z"/>
<path d="M2148 5287 l-187 -192 152 -155 c84 -85 152 -156 153 -157 0 -2 87
84 192 190 l191 192 -152 156 c-83 86 -154 157 -157 157 -3 1 -89 -85 -192
-191z m191 127 c-7 -8 -6 -14 1 -19 6 -3 7 -11 4 -17 -4 -6 -10 -5 -15 3 -6
10 -9 11 -9 2 0 -7 -5 -13 -12 -13 -6 0 -8 3 -5 6 3 4 1 16 -5 28 -10 19 -10
20 6 7 14 -12 16 -12 10 4 -5 13 -4 16 4 11 8 -4 12 0 12 11 0 15 2 15 10 3 5
-9 5 -19 -1 -26z m27 0 c-3 -7 0 -11 7 -8 7 2 23 -7 35 -21 24 -27 29 -40 10
-29 -7 4 -8 3 -4 -5 4 -6 11 -9 16 -6 5 3 29 -15 54 -39 36 -34 43 -45 31 -50
-9 -3 -13 -2 -10 3 3 5 1 12 -4 15 -5 4 -12 2 -15 -3 -7 -11 -46 -2 -46 11 0
5 6 6 13 2 6 -3 -1 7 -18 23 -16 16 -34 29 -39 29 -4 -1 -10 9 -12 22 -3 16 0
21 8 16 7 -4 8 -3 4 5 -10 15 -29 3 -22 -15 10 -26 -2 -14 -17 16 -9 17 -11
32 -6 36 5 3 6 10 3 16 -5 7 -2 8 5 4 7 -5 10 -14 7 -22z m-71 -31 c0 -6 3
-15 7 -19 4 -4 -4 -18 -18 -31 -14 -13 -19 -23 -12 -23 10 0 9 -3 -2 -9 -8 -6
-18 -7 -24 -4 -5 3 -6 1 -2 -5 4 -6 14 -8 23 -5 12 5 15 2 10 -10 -4 -12 -1
-15 14 -12 10 2 19 -1 19 -7 0 -6 11 -21 25 -34 14 -13 25 -26 25 -29 -1 -22
2 -26 18 -23 11 2 17 -3 15 -15 0 -11 4 -16 12 -13 19 7 49 -30 40 -51 -6 -16
-8 -15 -21 10 -8 15 -17 27 -20 27 -3 0 -2 -6 2 -12 4 -7 -18 12 -49 42 -31
30 -53 58 -50 64 3 5 1 6 -5 2 -6 -3 -14 -1 -18 5 -4 8 -3 9 4 5 7 -4 12 -2
12 4 0 7 -6 10 -14 7 -8 -3 -20 1 -26 9 -7 8 -19 14 -27 14 -8 0 -11 5 -8 10
3 6 1 10 -5 10 -7 0 -10 -6 -7 -14 3 -8 -1 -20 -9 -26 -11 -10 -14 -10 -15 1
-1 8 -4 3 -8 -11 -4 -14 -13 -24 -20 -22 -8 1 -7 -8 4 -28 9 -17 20 -28 25
-25 6 4 10 1 10 -4 0 -6 -6 -11 -12 -12 -7 0 -1 -5 15 -11 31 -11 35 -23 11
-32 -12 -5 -15 -2 -10 10 5 12 2 15 -9 10 -10 -4 -18 2 -23 15 -5 11 -12 21
-17 22 -6 1 -9 6 -7 12 2 5 -5 2 -15 -8 -17 -15 -21 -15 -34 -2 -13 13 -15 12
-16 -7 -2 -18 0 -20 7 -8 7 11 10 12 10 2 0 -8 -9 -16 -20 -19 -11 -3 -17 -9
-14 -14 3 -5 -1 -6 -9 -3 -8 3 -17 -1 -20 -9 -3 -9 1 -14 11 -13 9 0 16 -5 14
-12 -1 -8 2 -11 9 -6 7 4 10 2 7 -7 -3 -8 -13 -13 -22 -13 -13 2 -14 -1 -5
-12 10 -12 13 -12 23 1 10 14 13 13 28 -4 9 -11 13 -22 10 -26 -4 -4 -2 -5 3
-3 6 2 10 -1 10 -7 0 -5 -4 -9 -8 -7 -5 1 0 -8 10 -22 10 -13 20 -22 22 -20 2
2 -1 10 -7 17 -12 14 -7 27 10 27 5 0 6 -5 2 -12 -4 -6 -3 -9 2 -6 5 3 15 0
22 -8 10 -11 10 -14 0 -15 -7 0 -3 -4 10 -9 12 -5 22 -16 22 -24 0 -8 5 -18
12 -22 7 -5 8 -3 3 7 -5 8 0 7 12 -4 16 -14 82 -22 67 -8 -2 2 5 14 16 26 17
18 19 26 9 53 -6 18 -15 30 -19 27 -4 -3 -22 11 -39 31 -26 29 -30 39 -20 50
9 11 14 12 20 3 4 -7 5 -18 2 -25 -2 -6 1 -15 8 -20 8 -5 10 -3 4 6 -5 8 -3
11 6 8 8 -3 13 -12 13 -21 -1 -9 4 -13 12 -10 8 3 14 0 14 -6 0 -6 11 -16 23
-22 20 -9 28 -7 49 13 14 12 33 38 42 56 9 17 24 32 34 32 15 0 15 -2 2 -10
-9 -6 -10 -10 -3 -10 7 0 17 9 23 20 6 11 16 17 22 14 6 -4 8 -3 5 3 -4 6 0
18 7 29 12 16 11 22 -5 42 -10 14 -16 28 -13 33 3 5 -2 6 -10 3 -20 -8 -33 23
-18 38 9 9 10 5 7 -11 -4 -20 -2 -21 11 -10 13 10 17 10 25 -2 5 -8 9 -10 9
-5 0 5 11 -1 25 -14 13 -12 22 -28 18 -34 -3 -6 -3 -8 2 -4 4 4 14 3 21 -3 11
-9 3 -22 -38 -65 -28 -29 -59 -56 -70 -60 -10 -3 -15 -10 -12 -16 5 -7 1 -9
-9 -5 -10 4 -14 2 -11 -6 6 -17 -107 -129 -124 -122 -7 3 -10 0 -7 -5 4 -6 -9
-27 -28 -46 -34 -35 -35 -36 -56 -18 -11 10 -21 24 -21 31 0 7 -5 12 -12 11
-6 -2 -17 7 -23 19 -7 13 -15 20 -20 15 -4 -4 -5 2 -1 13 5 15 4 17 -4 9 -9
-9 -21 -2 -48 29 -21 22 -36 44 -35 49 2 4 -3 8 -10 8 -7 0 -29 16 -48 37 -18
20 -27 32 -19 28 12 -6 13 -5 3 6 -15 15 -17 33 -4 24 5 -3 12 4 16 14 4 13
11 18 22 14 9 -4 14 -2 10 3 -3 6 5 23 17 39 21 26 26 28 40 16 9 -8 19 -11
23 -7 3 3 2 6 -4 6 -25 0 -21 30 7 47 16 9 27 20 25 23 -3 4 4 15 15 25 11 10
20 14 20 9 0 -5 9 6 20 24 11 18 24 31 28 29 4 -2 15 4 24 14 9 10 12 20 7 23
-5 2 -4 3 3 2 7 -2 13 -8 13 -13z m143 -124 l91 -96 -26 -25 -25 -26 -93 97
-94 96 21 22 c11 12 17 27 13 34 -19 30 30 -14 113 -102z m-39 -222 l-25 -28
-97 98 -96 98 27 28 27 28 95 -98 95 -98 -26 -28z m-170 17 l93 -96 -26 -27
-27 -28 -95 98 -96 97 24 25 c13 14 25 25 28 26 3 1 47 -42 99 -95z m21 47 c0
-13 -28 -22 -35 -11 -3 4 1 11 7 13 20 8 28 8 28 -2z"/>
<path d="M2270 5360 c0 -5 5 -10 11 -10 5 0 7 5 4 10 -3 6 -8 10 -11 10 -2 0
-4 -4 -4 -10z"/>
<path d="M2236 5342 c-3 -5 1 -9 9 -9 8 0 12 4 9 9 -3 4 -7 8 -9 8 -2 0 -6 -4
-9 -8z"/>
<path d="M2185 5289 c-4 -6 -5 -12 -2 -15 2 -3 7 2 10 11 7 17 1 20 -8 4z"/>
<path d="M2325 5200 c10 -11 20 -20 22 -20 2 0 -2 9 -9 20 -7 11 -17 20 -22
20 -5 0 -1 -9 9 -20z"/>
<path d="M2561 5151 l-23 -18 23 2 c12 1 23 9 25 18 3 21 4 21 -25 -2z"/>
<path d="M2435 5009 c-4 -6 -5 -12 -2 -15 2 -3 7 2 10 11 7 17 1 20 -8 4z"/>
<path d="M2240 5196 c0 -2 8 -10 18 -17 15 -13 16 -12 3 4 -13 16 -21 21 -21
13z"/>
<path d="M2280 5156 c0 -2 8 -10 18 -17 15 -13 16 -12 3 4 -13 16 -21 21 -21
13z"/>
<path d="M1979 5333 c-13 -16 -12 -17 4 -4 16 13 21 21 13 21 -2 0 -10 -8 -17
-17z"/>
<path d="M2006 5228 c3 -5 10 -6 15 -3 13 9 11 12 -6 12 -8 0 -12 -4 -9 -9z"/>
<path d="M1816 5172 c-3 -5 1 -9 9 -9 8 0 12 4 9 9 -3 4 -7 8 -9 8 -2 0 -6 -4
-9 -8z"/>
<path d="M1926 5152 c-3 -5 1 -9 9 -9 8 0 12 4 9 9 -3 4 -7 8 -9 8 -2 0 -6 -4
-9 -8z"/>
<path d="M2050 4936 c0 -2 7 -7 16 -10 8 -3 12 -2 9 4 -6 10 -25 14 -25 6z"/>
<path d="M2087 4859 c7 -7 15 -10 18 -7 3 3 -2 9 -12 12 -14 6 -15 5 -6 -5z"/>
<path d="M2166 4773 c-6 -14 -5 -15 5 -6 7 7 10 15 7 18 -3 3 -9 -2 -12 -12z"/>
<path d="M2622 4358 c2 -6 10 -13 16 -14 7 -1 8 0 2 3 -5 2 -8 9 -4 14 3 5 0
9 -6 9 -7 0 -10 -5 -8 -12z"/>
<path d="M3250 3716 c0 -2 8 -10 18 -17 15 -13 16 -12 3 4 -13 16 -21 21 -21
13z"/>
<path d="M4244 3600 c0 -13 4 -16 10 -10 7 7 7 13 0 20 -6 6 -10 3 -10 -10z"/>
<path d="M3656 3311 c-4 -5 -2 -12 3 -15 5 -4 12 -2 15 3 4 5 2 12 -3 15 -5 4
-12 2 -15 -3z"/>
<path d="M4415 3074 c-129 -70 -155 -236 -53 -336 53 -52 110 -67 188 -51 49
9 125 87 140 143 23 85 -12 181 -81 227 -52 34 -147 42 -194 17z m153 -15 c6
-1 12 -9 12 -16 0 -8 -5 -11 -12 -7 -7 4 -8 3 -4 -4 4 -6 13 -9 21 -6 8 4 12
11 8 17 -3 6 -1 7 6 3 9 -6 9 -11 0 -22 -10 -12 -9 -13 4 -8 10 3 23 -6 39
-26 18 -25 23 -46 25 -101 1 -40 -3 -69 -8 -69 -6 0 -7 -5 -3 -11 3 -6 -7 -23
-24 -39 -17 -15 -28 -31 -24 -34 3 -4 -2 -4 -12 0 -15 6 -17 4 -11 -7 7 -12 6
-12 -7 -1 -13 10 -18 10 -24 1 -4 -8 -3 -9 4 -5 7 4 12 3 12 -2 0 -11 -48 -22
-92 -22 -19 0 -27 4 -22 12 4 6 3 8 -4 4 -17 -10 -77 29 -74 49 2 11 -1 14 -8
10 -7 -4 -14 2 -17 14 -3 11 -10 18 -15 15 -6 -4 -5 3 1 15 9 16 9 21 -1 19
-15 -4 -21 84 -7 115 18 42 55 83 68 79 8 -3 11 0 7 7 -4 6 -4 11 1 11 4 0 19
3 32 7 19 5 23 3 17 -8 -4 -9 -3 -9 5 1 10 14 51 17 107 9z"/>
<path d="M4381 2974 c0 -11 3 -14 6 -6 3 7 2 16 -1 19 -3 4 -6 -2 -5 -13z"/>
<path d="M4670 6269 c0 -5 -4 -7 -10 -4 -5 3 -10 1 -10 -5 0 -6 -4 -9 -9 -5
-5 3 -12 1 -16 -5 -4 -6 -11 -7 -17 -4 -6 4 -8 2 -5 -3 9 -14 -19 -37 -33 -28
-6 4 -9 1 -8 -7 2 -7 -5 -12 -14 -12 -10 1 -18 -3 -18 -8 0 -5 -10 -7 -22 -4
-13 3 -17 3 -10 0 6 -3 9 -10 6 -15 -3 -6 -11 -5 -20 2 -12 9 -13 9 -9 -3 3
-8 -3 -23 -15 -33 -19 -18 -20 -18 -20 1 -1 18 -1 18 -12 -1 -22 -37 -51 -54
-73 -42 -18 9 -19 9 -6 -6 11 -14 11 -17 0 -17 -20 -1 -69 -46 -69 -65 0 -9
-6 -18 -13 -21 -7 -2 -14 -14 -15 -27 -3 -36 -49 -140 -55 -125 -4 7 -3 0 0
-16 4 -19 2 -27 -5 -22 -6 4 -9 -3 -7 -19 2 -26 -10 -35 -18 -12 -2 6 -3 4 -2
-5 3 -20 -27 -50 -46 -46 -7 2 -13 -4 -14 -14 0 -22 -43 -70 -55 -63 -6 4 -7
-1 -3 -12 6 -15 4 -16 -9 -5 -13 10 -18 10 -24 1 -4 -8 -3 -9 4 -5 7 4 12 3
12 -3 0 -6 -55 -66 -122 -133 -67 -68 -118 -117 -114 -109 6 10 5 12 -3 7 -6
-4 -9 -12 -6 -17 4 -5 -1 -12 -9 -15 -9 -3 -14 -10 -11 -14 7 -11 -43 -42 -55
-35 -6 4 -7 -1 -3 -12 6 -16 5 -16 -10 -4 -15 12 -17 12 -11 -3 4 -10 -1 -25
-11 -36 -15 -16 -21 -18 -34 -7 -14 10 -14 10 -4 -4 11 -13 7 -22 -26 -52 -21
-20 -42 -33 -46 -29 -4 4 -6 2 -5 -3 5 -22 -1 -29 -11 -15 -9 13 -10 13 -6 -1
6 -19 -35 -63 -48 -52 -4 5 -5 3 -2 -4 4 -6 0 -19 -9 -28 -13 -13 -19 -13 -33
-3 -13 10 -14 10 -3 -2 15 -18 16 -34 0 -24 -7 4 -8 3 -4 -5 4 -6 -1 -14 -14
-19 -12 -4 -22 -12 -23 -17 -1 -6 -6 -9 -10 -7 -5 1 -6 -2 -2 -8 3 -5 -1 -10
-9 -10 -8 0 -18 -5 -22 -12 -5 -7 -2 -8 7 -3 8 5 3 -4 -10 -18 -13 -14 -28
-25 -34 -24 -6 1 -11 -2 -12 -8 -1 -19 -16 -35 -27 -29 -6 4 -8 2 -4 -4 3 -6
2 -13 -3 -17 -16 -10 8 -61 34 -73 14 -7 25 -16 25 -22 0 -13 -17 -13 -23 0
-3 6 -4 5 -3 -2 2 -7 13 -12 24 -11 22 3 67 -48 55 -61 -4 -4 -1 -4 8 -1 9 3
19 -3 25 -17 6 -13 9 -16 7 -8 -2 8 8 2 22 -15 14 -16 25 -27 26 -22 1 4 2 13
3 20 1 6 8 11 15 9 7 -1 10 2 7 7 -8 13 65 72 78 64 6 -4 4 2 -4 13 -8 10 -11
16 -6 12 5 -4 21 8 36 27 18 22 30 31 37 24 6 -6 15 -4 24 8 13 16 12 17 -3 4
-10 -7 -18 -9 -18 -3 0 16 152 167 164 164 6 -2 8 -1 4 3 -9 9 42 56 53 49 5
-3 6 2 3 11 -4 10 2 24 15 36 11 11 21 15 21 10 0 -6 -7 -14 -16 -19 -14 -8
-13 -10 2 -23 10 -8 15 -9 11 -2 -10 16 35 88 68 109 14 9 25 23 25 31 0 8 5
11 13 7 6 -4 9 -4 5 0 -9 11 14 36 26 28 5 -3 6 0 2 6 -4 7 -1 12 6 12 18 0
80 64 72 73 -4 4 0 7 9 7 9 0 19 5 23 12 5 7 2 8 -7 3 -10 -6 -11 -5 -3 4 6 7
20 13 31 14 14 1 19 7 16 18 -3 9 1 20 8 24 8 6 10 4 4 -5 -5 -9 -4 -11 3 -6
7 4 12 14 12 22 0 8 3 13 8 11 4 -1 8 2 9 8 1 5 10 12 20 16 10 3 18 12 18 20
1 8 6 13 13 11 7 -1 15 5 19 14 3 9 16 27 27 39 17 18 26 21 41 13 19 -9 19
-8 2 5 -16 14 -16 15 0 28 13 11 15 11 9 1 -7 -11 -4 -11 15 0 13 7 27 17 30
22 4 5 18 9 33 9 14 0 23 4 20 9 -4 6 4 5 16 -2 12 -6 24 -9 28 -6 3 3 0 6 -7
6 -7 0 -9 5 -6 10 3 6 15 10 26 10 13 0 18 4 13 12 -4 7 -3 8 5 4 19 -12 132
64 139 94 2 8 8 18 13 21 14 8 39 58 39 77 0 8 3 12 7 8 4 -4 19 18 34 48 14
31 29 53 33 49 4 -4 4 0 1 9 -4 9 0 18 9 21 9 4 16 14 16 22 0 9 4 14 9 11 5
-3 12 1 15 10 4 10 2 13 -6 8 -6 -4 -4 3 5 17 9 13 17 29 17 35 0 14 -108 124
-121 124 -6 0 -8 4 -5 8 2 4 -9 18 -25 31 -16 13 -26 27 -23 32 3 5 -3 6 -13
2 -16 -6 -16 -5 -4 10 12 15 12 17 -4 11 -13 -5 -16 -4 -11 4 4 7 2 12 -3 12
-6 0 -11 -5 -11 -11z m88 -412 l-113 -187 -138 -55 -139 -56 -281 -285 c-155
-157 -359 -364 -452 -460 l-170 -175 -87 92 -88 93 310 310 c170 171 373 378
452 459 l143 148 55 140 55 140 55 31 c62 35 168 102 250 158 l55 38 103 -102
103 -102 -113 -187z"/>
<path d="M4610 6160 c-8 -5 -10 -10 -5 -10 6 0 17 5 25 10 8 5 11 10 5 10 -5
0 -17 -5 -25 -10z"/>
<path d="M3796 5263 c-6 -14 -5 -15 5 -6 7 7 10 15 7 18 -3 3 -9 -2 -12 -12z"/>
<path d="M3746 5217 c3 -10 9 -15 12 -12 3 3 0 11 -7 18 -10 9 -11 8 -5 -6z"/>
<path d="M3663 5155 c0 -8 4 -12 9 -9 5 3 6 10 3 15 -9 13 -12 11 -12 -6z"/>
<path d="M3765 5069 c-4 -6 -5 -12 -2 -15 2 -3 7 2 10 11 7 17 1 20 -8 4z"/>
<path d="M3490 4936 c0 -2 7 -7 16 -10 8 -3 12 -2 9 4 -6 10 -25 14 -25 6z"/>
<path d="M1525 6141 c-3 -5 -2 -12 3 -15 5 -3 9 1 9 9 0 17 -3 19 -12 6z"/>
<path d="M1590 6130 c0 -5 5 -10 11 -10 5 0 7 5 4 10 -3 6 -8 10 -11 10 -2 0
-4 -4 -4 -10z"/>
<path d="M2597 6109 c7 -7 15 -10 18 -7 3 3 -2 9 -12 12 -14 6 -15 5 -6 -5z"/>
<path d="M1606 6068 c3 -5 10 -6 15 -3 13 9 11 12 -6 12 -8 0 -12 -4 -9 -9z"/>
<path d="M2555 6050 c-3 -5 -1 -10 4 -10 6 0 11 5 11 10 0 6 -2 10 -4 10 -3 0
-8 -4 -11 -10z"/>
<path d="M4255 6029 c-4 -6 -5 -12 -2 -15 2 -3 7 2 10 11 7 17 1 20 -8 4z"/>
<path d="M2293 5827 c0 -8 6 -14 14 -14 9 0 10 4 2 14 -6 7 -12 13 -14 13 -1
0 -2 -6 -2 -13z"/>
<path d="M2114 5626 c1 -8 5 -18 8 -22 4 -3 5 1 4 10 -1 8 -5 18 -8 22 -4 3
-5 -1 -4 -10z"/>
<path d="M2781 5564 c0 -11 3 -14 6 -6 3 7 2 16 -1 19 -3 4 -6 -2 -5 -13z"/>
<path d="M3934 5546 c1 -8 5 -18 8 -22 4 -3 5 1 4 10 -1 8 -5 18 -8 22 -4 3
-5 -1 -4 -10z"/>
<path d="M3855 5461 c-3 -5 -2 -12 3 -15 5 -3 9 1 9 9 0 17 -3 19 -12 6z"/>
<path d="M4296 5421 c-4 -5 -2 -12 3 -15 5 -4 12 -2 15 3 4 5 2 12 -3 15 -5 4
-12 2 -15 -3z"/>
<path d="M1710 5394 c0 -8 -4 -14 -10 -14 -5 0 -6 -7 -3 -17 5 -12 3 -14 -8
-8 -8 4 -11 5 -7 0 4 -4 3 -17 -3 -28 -8 -14 -8 -18 1 -12 7 4 11 1 9 -6 -3
-28 1 -39 21 -49 16 -8 20 -8 18 2 -2 7 3 12 10 11 6 -2 11 0 11 5 -3 19 2 23
16 12 13 -11 14 -10 9 4 -3 9 -1 16 5 16 6 0 11 7 11 16 0 13 3 14 14 5 18
-15 29 1 31 41 l1 27 -38 -31 c-21 -16 -50 -46 -65 -64 -14 -19 -28 -33 -30
-31 -8 9 19 107 30 108 83 6 112 29 34 28 -41 -1 -57 -5 -57 -15z m120 -48 c0
-3 -4 -8 -10 -11 -5 -3 -10 -1 -10 4 0 6 5 11 10 11 6 0 10 -2 10 -4z"/>
<path d="M4216 5328 c3 -5 10 -6 15 -3 13 9 11 12 -6 12 -8 0 -12 -4 -9 -9z"/>
<path d="M4137 5266 c-3 -8 -2 -18 3 -21 13 -8 20 9 11 24 -6 10 -10 9 -14 -3z"/>
<path d="M4040 5175 c0 -7 30 -13 34 -7 3 4 -4 9 -15 9 -10 1 -19 0 -19 -2z"/>
<path d="M3963 5102 l-23 -17 27 -2 c19 -1 22 1 12 8 -13 8 -5 13 14 10 5 -1
6 3 2 9 -8 12 -6 13 -32 -8z"/>
<path d="M3366 4992 c-3 -5 1 -9 9 -9 8 0 12 4 9 9 -3 4 -7 8 -9 8 -2 0 -6 -4
-9 -8z"/>
<path d="M3805 4929 c-3 -4 2 -6 10 -5 21 3 28 13 10 13 -9 0 -18 -4 -20 -8z"/>
<path d="M3018 4913 c10 -4 10 -8 0 -21 -12 -15 -11 -16 4 -3 19 14 15 32 -5
30 -8 0 -8 -2 1 -6z"/>
<path d="M3286 4912 c-3 -5 1 -9 9 -9 8 0 12 4 9 9 -3 4 -7 8 -9 8 -2 0 -6 -4
-9 -8z"/>
<path d="M3725 4870 c-4 -6 -1 -9 7 -8 7 2 12 -3 10 -10 -1 -8 2 -11 8 -7 8 5
7 11 -1 21 -14 17 -16 17 -24 4z"/>
<path d="M3175 4740 c10 -11 20 -20 23 -20 3 0 -3 9 -13 20 -10 11 -20 20 -23
20 -3 0 3 -9 13 -20z"/>
<path d="M3405 4610 c3 -5 8 -10 11 -10 2 0 4 5 4 10 0 6 -5 10 -11 10 -5 0
-7 -4 -4 -10z"/>
<path d="M3321 4593 c-1 -17 16 -25 25 -12 4 7 3 9 -4 5 -5 -3 -13 0 -15 6 -4
9 -6 10 -6 1z"/>
<path d="M2411 4271 c-8 -5 -21 -7 -30 -3 -9 3 -12 1 -8 -3 7 -8 -33 -35 -75
-51 -10 -3 -18 -11 -18 -16 0 -5 -4 -6 -10 -3 -5 3 -10 1 -10 -5 0 -6 -5 -8
-12 -4 -7 5 -8 3 -3 -6 6 -10 4 -12 -9 -7 -11 5 -15 3 -10 -5 5 -8 2 -9 -10
-5 -10 4 -15 3 -11 -3 3 -6 0 -10 -9 -10 -8 0 -24 -12 -36 -27 -12 -16 -18
-21 -14 -13 4 9 3 12 -2 7 -5 -5 -9 -14 -9 -20 -1 -7 -6 -11 -13 -10 -7 2 -11
0 -11 -5 3 -20 -3 -23 -18 -11 -16 13 -17 12 -4 -4 13 -16 12 -19 -7 -24 -12
-3 -19 -9 -16 -14 3 -5 -1 -9 -9 -9 -8 0 -21 -8 -28 -17 -13 -17 -13 -17 6 -3
19 14 19 14 6 -3 -15 -18 -15 -18 -29 0 -12 16 -13 16 -8 -9 3 -20 0 -28 -10
-28 -16 0 -19 -16 -4 -25 5 -3 47 31 92 77 101 102 127 122 252 193 l100 56
168 -173 c93 -95 196 -201 230 -235 l61 -61 -29 -74 c-16 -40 -43 -98 -61
-128 -46 -79 -1011 -1051 -1073 -1081 -63 -31 -161 -36 -236 -14 -54 16 -69
28 -181 143 -156 160 -183 215 -163 336 19 120 31 135 452 557 354 355 389
393 373 405 -23 17 -34 10 -31 -21 2 -13 0 -22 -5 -20 -4 3 -14 -4 -22 -15 -7
-11 -16 -18 -19 -15 -3 3 -11 -3 -19 -12 -13 -17 -13 -17 6 -3 19 14 19 14 6
-2 -7 -10 -17 -15 -22 -12 -5 3 -13 -6 -18 -19 -6 -14 -15 -28 -22 -33 -7 -4
-10 -3 -6 2 10 17 -31 13 -44 -4 -11 -14 -11 -15 1 -4 19 16 30 15 30 -4 0 -8
-4 -13 -9 -10 -9 6 -48 -32 -43 -43 1 -3 -2 -6 -7 -6 -13 0 -26 -14 -26 -28
-1 -7 -6 -11 -13 -9 -7 1 -20 -11 -30 -26 -9 -16 -21 -30 -27 -32 -5 -1 -9 -6
-7 -12 1 -5 -2 -7 -8 -3 -5 3 -10 -1 -10 -10 0 -9 -4 -14 -9 -11 -5 3 -11 -3
-14 -14 -4 -14 -10 -18 -23 -13 -13 5 -15 3 -9 -7 6 -9 4 -12 -7 -8 -8 4 -15
0 -15 -8 0 -7 5 -11 11 -8 6 3 2 -2 -8 -10 -11 -9 -23 -16 -28 -16 -4 0 -7 -6
-5 -12 1 -7 -4 -12 -10 -11 -7 2 -12 0 -10 -5 1 -4 -1 -7 -5 -7 -12 0 -58 -48
-53 -55 3 -4 -3 -14 -12 -21 -14 -12 -16 -12 -8 1 8 13 6 13 -8 1 -9 -7 -15
-17 -12 -21 3 -5 0 -12 -6 -16 -8 -5 -9 -3 -4 7 8 12 6 12 -8 0 -9 -7 -15 -17
-12 -21 6 -10 -20 -32 -28 -23 -4 3 -7 -1 -7 -10 0 -9 -5 -19 -12 -23 -7 -5
-8 -2 -3 7 5 8 4 11 -1 6 -5 -5 -9 -14 -9 -20 -1 -7 -6 -11 -12 -10 -7 2 -15
-6 -18 -17 -4 -11 -11 -18 -16 -14 -5 3 -8 0 -7 -8 2 -7 -3 -12 -9 -11 -7 2
-12 -2 -10 -9 1 -7 -4 -12 -12 -13 -8 0 -15 -8 -17 -17 -3 -24 -32 -63 -46
-63 -16 0 -41 -104 -40 -162 0 -18 -4 -33 -10 -33 -7 0 -7 -4 -1 -12 5 -7 9
-28 7 -45 -1 -18 2 -31 6 -28 4 2 12 -7 19 -21 8 -19 8 -23 0 -18 -7 4 -10 1
-7 -7 3 -8 12 -13 19 -11 8 2 11 0 7 -4 -8 -8 28 -63 54 -82 10 -7 15 -20 12
-30 -5 -13 -4 -14 4 -3 8 11 13 10 30 -5 16 -14 19 -20 9 -27 -8 -6 -7 -7 4
-4 21 7 39 -11 32 -32 -3 -9 -1 -12 4 -6 5 7 17 2 33 -13 21 -19 21 -22 5 -17
-18 6 -19 6 -2 -5 9 -6 15 -15 13 -19 -3 -4 1 -8 9 -8 8 0 12 5 9 11 -3 6 3 1
13 -10 10 -12 37 -31 61 -41 23 -11 40 -21 38 -24 -5 -4 143 -4 159 1 20 6 31
8 60 9 23 1 27 3 15 11 -12 8 -11 10 6 10 12 0 27 7 34 15 7 8 19 15 26 15 8
0 14 5 14 11 0 8 5 7 15 -1 13 -11 14 -10 10 2 -4 9 6 28 24 45 17 17 27 33
24 37 -4 3 1 6 10 6 8 0 17 -6 20 -12 2 -7 3 -5 1 6 -3 17 86 116 105 116 5 0
11 10 14 21 4 14 11 20 21 16 9 -4 15 -2 13 3 -3 13 93 120 108 120 7 0 15 9
18 21 3 11 12 19 21 17 8 -2 15 2 14 7 0 6 -4 9 -9 8 -17 -5 -9 5 27 32 19 15
43 28 52 30 9 1 16 9 14 17 -3 17 76 104 90 100 5 -1 12 6 15 17 6 22 29 34
46 24 7 -4 6 1 -2 11 -12 14 -12 17 -1 14 8 -2 14 2 15 8 0 20 53 66 66 58 8
-4 9 -3 5 4 -4 7 20 40 61 82 38 39 68 70 67 70 -1 0 17 19 40 43 22 23 44 41
48 40 4 -2 15 8 25 22 10 15 28 38 41 52 24 28 28 38 12 28 -19 -12 -10 4 18
31 15 15 20 22 11 16 -14 -10 -14 -7 0 37 9 27 20 46 25 43 5 -3 7 2 3 11 -3
10 -2 17 2 17 5 0 11 -6 14 -12 3 -7 3 7 1 32 -2 29 -11 51 -23 61 -14 12 -19
25 -15 45 3 21 2 25 -5 14 -5 -8 -7 -18 -4 -23 3 -5 -3 -4 -14 1 -10 6 -25 22
-32 36 -8 14 -18 23 -23 20 -5 -3 -8 2 -6 12 2 11 -3 19 -12 19 -21 0 -57 38
-52 55 3 7 0 10 -6 6 -13 -8 -124 99 -114 109 4 4 2 5 -3 3 -11 -3 -59 38 -61
53 -1 5 -2 14 -3 20 0 5 -5 8 -11 4 -12 -8 -47 28 -42 43 2 7 -1 12 -8 12 -6
0 -8 5 -4 13 6 9 4 9 -8 -1 -11 -9 -18 -10 -23 -2 -8 12 -16 13 -34 1z m-446
-340 c3 -5 2 -12 -3 -15 -5 -3 -9 1 -9 9 0 17 3 19 12 6z m-165 -175 c0 -2 -8
-10 -17 -17 -16 -13 -17 -12 -4 4 13 16 21 21 21 13z m990 -230 c0 -2 -8 -10
-17 -17 -16 -13 -17 -12 -4 4 13 16 21 21 21 13z m-1300 -80 c0 -2 -8 -10 -17
-17 -16 -13 -17 -12 -4 4 13 16 21 21 21 13z"/>
<path d="M2328 4253 c7 -3 16 -2 19 1 4 3 -2 6 -13 5 -11 0 -14 -3 -6 -6z"/>
<path d="M3810 4196 c0 -2 7 -7 16 -10 8 -3 12 -2 9 4 -6 10 -25 14 -25 6z"/>
<path d="M2185 4180 c-4 -6 -11 -7 -17 -4 -7 4 -8 2 -4 -5 6 -9 12 -9 24 1 10
7 19 14 21 15 2 2 -1 3 -7 3 -6 0 -14 -5 -17 -10z"/>
<path d="M2626 4121 c-4 -5 -2 -12 3 -15 5 -4 12 -2 15 3 4 5 2 12 -3 15 -5 4
-12 2 -15 -3z"/>
<path d="M3800 4126 c0 -2 6 -9 14 -15 11 -9 16 -9 22 0 4 8 3 9 -4 5 -7 -4
-12 -2 -12 3 0 6 -4 11 -10 11 -5 0 -10 -2 -10 -4z"/>
<path d="M3902 4050 c0 -14 2 -19 5 -12 2 6 2 18 0 25 -3 6 -5 1 -5 -13z"/>
<path d="M2140 3853 c-79 -82 -293 -297 -474 -480 l-329 -332 6 -38 c8 -46 38
-73 81 -73 33 0 11 -21 929 902 40 41 47 53 47 87 0 51 -29 81 -80 81 -33 0
-47 -12 -180 -147z m206 103 c16 -21 16 -21 11 4 -6 23 -5 24 8 6 15 -20 12
-79 -5 -84 -5 -2 -7 -9 -4 -14 4 -6 3 -9 -2 -7 -8 4 -88 -70 -96 -89 -2 -4 -6
-6 -10 -4 -5 1 -8 -3 -8 -8 0 -15 -121 -125 -136 -124 -7 1 -10 -4 -8 -10 3
-7 -4 -22 -15 -35 -11 -13 -21 -26 -23 -29 -8 -17 -122 -111 -129 -106 -5 3
-6 -1 -3 -9 3 -8 -11 -28 -33 -47 -21 -19 -50 -49 -65 -67 -15 -19 -30 -34
-35 -35 -4 0 -7 -5 -5 -11 2 -6 -4 -4 -13 3 -13 11 -15 10 -10 -2 4 -9 -3 -23
-18 -34 -13 -11 -25 -23 -26 -29 -2 -5 -7 -9 -12 -8 -5 2 -8 -1 -6 -5 4 -15
-62 -64 -78 -59 -9 4 -12 1 -8 -8 3 -8 10 -12 16 -8 6 3 7 1 3 -6 -6 -9 -11
-9 -22 0 -11 9 -13 9 -10 -2 3 -8 -6 -27 -20 -44 -15 -16 -23 -23 -19 -15 5 8
-1 6 -12 -5 -11 -11 -19 -23 -16 -27 2 -5 1 -8 -4 -8 -4 -1 -24 -15 -43 -32
-19 -17 -28 -27 -20 -23 12 6 12 5 3 -5 -6 -7 -28 -14 -48 -16 -30 -2 -37 2
-50 25 -12 25 -12 32 3 62 10 21 24 33 34 33 10 -1 15 2 12 7 -3 5 11 26 31
46 30 30 38 34 47 22 8 -11 9 -10 4 4 -4 13 6 31 32 58 45 45 52 48 46 17 -4
-21 -4 -21 5 -3 4 11 7 23 4 27 -6 11 39 58 50 51 6 -3 8 -2 5 3 -7 11 17 35
26 26 4 -3 4 2 0 12 -5 14 -4 17 4 12 7 -4 12 -4 12 1 0 10 46 64 51 60 2 -2
21 15 43 37 21 23 37 41 35 42 -7 1 106 114 114 114 5 0 5 -4 2 -10 -3 -6 1
-7 10 -3 13 5 14 7 3 14 -10 7 0 22 40 59 29 28 58 48 64 44 7 -4 8 -3 4 4
-10 16 80 106 95 96 7 -4 9 -3 5 4 -8 14 42 64 56 56 7 -4 8 -2 4 4 -4 7 -2
12 5 12 7 0 9 3 6 7 -4 3 2 13 14 21 11 8 24 24 29 37 11 29 55 30 76 1z"/>
<path d="M2305 3960 c-3 -6 1 -7 9 -4 18 7 21 14 7 14 -6 0 -13 -4 -16 -10z"/>
<path d="M1976 3649 c-28 -28 -15 -31 14 -3 13 13 20 24 15 23 -6 0 -19 -9
-29 -20z"/>
<path d="M1977 3610 c-3 -11 -1 -20 4 -20 5 0 9 9 9 20 0 11 -2 20 -4 20 -2 0
-6 -9 -9 -20z"/>
<path d="M1910 3581 c0 -6 4 -13 10 -16 6 -3 7 1 4 9 -7 18 -14 21 -14 7z"/>
<path d="M2006 3548 c3 -5 10 -6 15 -3 13 9 11 12 -6 12 -8 0 -12 -4 -9 -9z"/>
<path d="M1831 3506 c-9 -11 -9 -16 0 -22 7 -4 9 -3 5 4 -3 6 2 15 11 21 10 6
13 11 7 11 -6 0 -17 -6 -23 -14z"/>
<path d="M1406 2972 c-2 -4 4 -8 14 -8 10 0 16 4 14 8 -3 4 -9 8 -14 8 -5 0
-11 -4 -14 -8z"/>
<path d="M2665 3980 c-4 -6 -11 -7 -17 -4 -7 4 -8 2 -4 -5 6 -9 11 -9 22 0 14
11 18 19 10 19 -3 0 -8 -5 -11 -10z"/>
<path d="M1846 3858 c3 -5 10 -6 15 -3 13 9 11 12 -6 12 -8 0 -12 -4 -9 -9z"/>
<path d="M4121 3857 c2 -1 13 -9 24 -17 19 -14 19 -14 6 3 -7 9 -18 17 -24 17
-6 0 -8 -1 -6 -3z"/>
<path d="M2345 3557 c-585 -593 -737 -750 -747 -772 -22 -50 20 -115 75 -115
33 0 7 -24 650 630 180 184 330 345 333 357 9 33 -15 83 -43 94 -54 20 -63 14
-268 -194z m248 163 c4 0 5 5 1 12 -5 7 -3 8 5 3 7 -4 19 -21 26 -38 10 -25
10 -34 -4 -58 -9 -16 -22 -29 -29 -29 -7 0 -11 4 -8 8 3 5 -1 9 -7 9 -7 0 -13
-10 -14 -21 -1 -12 1 -15 4 -8 3 6 8 10 13 7 4 -2 -30 -43 -76 -90 -51 -52
-89 -83 -96 -79 -6 4 -8 3 -5 -3 4 -6 -46 -65 -112 -132 -65 -66 -116 -123
-112 -127 3 -4 1 -4 -6 0 -7 4 -17 -2 -23 -14 -6 -11 -15 -18 -20 -15 -5 3
-12 0 -16 -6 -4 -8 -3 -9 4 -5 7 4 12 3 12 -2 0 -17 -13 -22 -28 -9 -12 9 -14
9 -9 0 11 -18 -23 -68 -34 -51 -6 9 -9 6 -9 -10 0 -15 -9 -26 -25 -32 -14 -5
-25 -12 -25 -15 0 -4 6 -3 13 1 8 5 8 3 -2 -9 -7 -9 -17 -15 -21 -12 -9 5 -28
-14 -29 -30 -1 -5 -5 -10 -10 -10 -13 0 -26 -14 -26 -28 0 -7 -7 -12 -15 -12
-8 -1 -14 -6 -13 -12 1 -6 -6 -18 -16 -27 -14 -13 -21 -14 -27 -5 -4 8 -3 10
4 5 8 -5 10 -1 5 10 -5 14 -3 16 13 11 19 -7 19 -7 0 8 -26 19 -33 13 -31 -29
1 -22 -4 -41 -13 -48 -9 -7 -13 -8 -9 -2 3 6 0 11 -7 11 -7 0 -13 -10 -12 -21
1 -16 -5 -21 -22 -20 -16 1 -20 -2 -13 -9 11 -11 -9 -37 -28 -37 -6 0 -11 -7
-11 -15 0 -8 -14 -22 -31 -31 -30 -15 -32 -15 -25 2 6 15 5 17 -5 7 -15 -15
-33 -17 -24 -3 3 6 -1 7 -9 4 -9 -3 -16 -2 -17 2 0 5 -2 19 -3 32 -2 12 1 22
5 22 4 0 6 8 5 17 0 9 9 22 21 28 13 7 20 15 17 18 -4 3 5 12 20 18 14 7 26
17 26 24 0 6 17 27 37 46 20 18 31 25 23 15 -14 -18 -14 -18 7 -6 12 8 19 18
16 23 -2 4 9 21 26 37 17 16 33 25 36 20 10 -16 24 -1 20 20 -2 11 1 20 6 20
6 0 8 4 5 9 -3 5 0 11 8 14 15 6 16 -9 2 -33 -7 -12 -6 -13 4 -3 8 7 15 22 17
33 2 12 20 37 41 57 20 20 28 30 17 23 -17 -12 -18 -12 -7 0 7 8 17 16 23 16
5 1 14 2 21 3 6 0 8 4 5 8 -10 10 43 54 56 46 7 -4 6 0 -2 10 -11 14 -11 17 0
17 8 0 20 9 27 20 7 12 17 18 22 15 6 -4 7 1 3 11 -4 12 -3 15 5 10 7 -4 12
-1 12 7 0 19 60 75 60 56 1 -8 8 -2 16 14 8 15 19 27 25 27 6 0 7 5 3 12 -5 7
-2 9 9 5 11 -4 14 -2 10 8 -3 9 4 18 18 24 13 5 20 10 15 10 -15 1 56 71 71
71 8 0 18 12 23 26 6 15 14 22 22 18 6 -4 8 -3 5 3 -4 6 1 17 10 24 9 8 14 9
11 4 -4 -6 2 -11 12 -11 14 0 16 3 8 13 -16 19 9 48 29 32 11 -9 12 -9 7 4 -3
9 1 26 10 39 9 12 16 17 16 11 0 -7 -4 -15 -10 -18 -5 -3 -10 -11 -10 -18 0
-14 35 34 35 48 0 6 9 9 19 7 12 -2 16 1 11 10 -6 10 -5 11 6 1 7 -7 17 -13
22 -13z"/>
<path d="M2480 3545 c0 -2 6 -8 13 -14 10 -8 14 -7 14 2 0 8 -6 14 -14 14 -7
0 -13 -1 -13 -2z"/>
<path d="M2417 3466 c-3 -8 -2 -18 3 -21 13 -8 20 9 11 24 -6 10 -10 9 -14 -3z"/>
<path d="M2329 3373 c-12 -16 -12 -17 2 -6 9 7 20 9 24 5 5 -4 5 -1 1 6 -9 16
-11 15 -27 -5z"/>
<path d="M2056 3172 c-3 -5 1 -9 9 -9 8 0 12 4 9 9 -3 4 -7 8 -9 8 -2 0 -6 -4
-9 -8z"/>
<path d="M2006 3058 c3 -5 10 -6 15 -3 13 9 11 12 -6 12 -8 0 -12 -4 -9 -9z"/>
<path d="M1926 2991 c-4 -5 -2 -12 3 -15 5 -4 12 -2 15 3 4 5 2 12 -3 15 -5 4
-12 2 -15 -3z"/>
<path d="M1744 2896 c4 -11 2 -22 -4 -26 -8 -5 -7 -9 3 -13 11 -4 14 1 12 19
-1 14 -6 28 -10 32 -5 4 -5 -2 -1 -12z"/>
<path d="M1766 2818 c3 -5 10 -6 15 -3 13 9 11 12 -6 12 -8 0 -12 -4 -9 -9z"/>
<path d="M1643 2772 c-1 -22 0 -24 9 -8 6 10 6 22 2 26 -5 5 -10 -3 -11 -18z"/>
<path d="M1686 3711 c-4 -5 -2 -12 3 -15 5 -4 12 -2 15 3 4 5 2 12 -3 15 -5 4
-12 2 -15 -3z"/>
<path d="M2221 3657 c-8 -10 -7 -14 2 -14 8 0 14 6 14 14 0 7 -1 13 -2 13 -2
0 -8 -6 -14 -13z"/>
<path d="M1607 3613 c3 -7 6 -13 8 -13 2 0 5 6 8 13 3 8 -1 14 -8 14 -7 0 -11
-6 -8 -14z"/>
<path d="M2139 3573 c-13 -16 -12 -17 4 -4 16 13 21 21 13 21 -2 0 -10 -8 -17
-17z"/>
<path d="M4380 3580 c0 -5 5 -10 11 -10 5 0 7 5 4 10 -3 6 -8 10 -11 10 -2 0
-4 -4 -4 -10z"/>
<path d="M1785 3550 c-4 -6 -11 -7 -17 -4 -7 4 -8 2 -4 -5 6 -9 11 -9 22 0 14
11 18 19 10 19 -3 0 -8 -5 -11 -10z"/>
<path d="M3290 3521 c0 -6 4 -13 10 -16 6 -3 7 1 4 9 -7 18 -14 21 -14 7z"/>
<path d="M1446 3471 c-4 -5 -2 -12 3 -15 5 -4 12 -2 15 3 4 5 2 12 -3 15 -5 4
-12 2 -15 -3z"/>
<path d="M2165 3439 c-4 -6 -5 -12 -2 -15 2 -3 7 2 10 11 7 17 1 20 -8 4z"/>
<path d="M1606 3391 c-4 -5 -2 -12 3 -15 5 -4 12 -2 15 3 4 5 2 12 -3 15 -5 4
-12 2 -15 -3z"/>
<path d="M2119 3383 c-13 -16 -12 -17 4 -4 9 7 17 15 17 17 0 8 -8 3 -21 -13z"/>
<path d="M1369 3373 c-13 -16 -12 -17 4 -4 9 7 17 15 17 17 0 8 -8 3 -21 -13z"/>
<path d="M3452 3353 c9 -11 13 -12 19 -1 5 7 9 8 9 3 0 -6 10 -16 23 -24 l22
-13 -22 23 c-25 25 -72 36 -51 12z"/>
<path d="M1300 3311 c0 -7 -5 -9 -12 -5 -7 5 -8 3 -3 -5 5 -9 10 -10 18 -2 6
6 8 14 4 18 -4 3 -7 1 -7 -6z"/>
<path d="M1526 3311 c-4 -5 -2 -12 3 -15 5 -4 12 -2 15 3 4 5 2 12 -3 15 -5 4
-12 2 -15 -3z"/>
<path d="M1206 3231 c-4 -5 -2 -12 3 -15 5 -4 12 -2 15 3 4 5 2 12 -3 15 -5 4
-12 2 -15 -3z"/>
<path d="M2293 3232 c-8 -5 -8 -12 2 -25 12 -16 13 -16 19 -1 8 21 -5 36 -21
26z"/>
<path d="M1166 3147 c3 -10 9 -15 12 -12 3 3 0 11 -7 18 -10 9 -11 8 -5 -6z"/>
<path d="M2383 3095 c0 -8 4 -12 9 -9 5 3 6 10 3 15 -9 13 -12 11 -12 -6z"/>
<path d="M2246 3068 c3 -5 10 -6 15 -3 13 9 11 12 -6 12 -8 0 -12 -4 -9 -9z"/>
<path d="M2144 3029 c-3 -6 -2 -15 3 -20 5 -5 9 -1 9 11 0 23 -2 24 -12 9z"/>
<path d="M1683 2983 c0 -9 4 -10 14 -2 7 6 13 12 13 14 0 1 -6 2 -13 2 -8 0
-14 -6 -14 -14z"/>
<path d="M1810 2728 c0 -4 4 -8 9 -8 6 0 12 4 15 8 3 5 -1 9 -9 9 -8 0 -15 -4
-15 -9z"/>
<path d="M1317 2539 c7 -7 15 -10 18 -7 3 3 -2 9 -12 12 -14 6 -15 5 -6 -5z"/>
<path d="M4588 2443 c7 -3 16 -2 19 1 4 3 -2 6 -13 5 -11 0 -14 -3 -6 -6z"/>
</g>
</svg>
